<svg width="67" height="14" viewBox="0 0 67 14" fill="none" xmlns="http://www.w3.org/2000/svg">
<path d="M5.36829 2.15094C5.54334 2.15094 6.01015 2.13208 6.4964 2.35849V0.377359C5.93234 0.0566042 5.21268 0 4.68752 0C3.34545 0 1.28372 0.471699 1.28372 3.35849V4H0V6.01887H1.28372V13.8113H3.89006V6.01887H6.4964V4H3.89006V3.64151C3.89006 2.67925 4.37632 2.15094 5.36829 2.15094Z" fill="white"/>
<path d="M12.2239 3.81132C9.63702 3.81132 7.10848 5.60377 7.10848 8.90566C7.10848 12.1698 9.59812 14 12.3795 14C14.1689 14 15.6277 13.283 16.4641 12.2642L15.2776 11.0377C14.5385 11.6604 13.6632 11.9245 12.6713 11.9245C11.1541 11.9245 9.94823 11.2264 9.57867 9.88679H17.1448C17.7089 5.56604 14.7914 3.81132 12.2239 3.81132ZM12.2434 5.9434C13.4687 5.9434 14.6747 6.64151 14.8303 8.03774H9.53977C9.87042 6.62264 11.0374 5.9434 12.2434 5.9434Z" fill="white"/>
<path d="M23.0828 14C24.8917 14 26.0587 13.0377 26.3116 12.4906H26.3699V13.8113H28.9763V4H26.3699V5.32076H26.3116C26.0587 4.77358 24.8917 3.81132 23.0828 3.81132C20.7293 3.81132 18.2202 5.50943 18.2202 8.90566C18.2202 12.3019 20.7293 14 23.0828 14ZM23.608 11.7358C22.1492 11.7358 20.7877 10.7358 20.7877 8.90566C20.7877 7.07547 22.1492 6.07547 23.608 6.07547C25.0667 6.07547 26.4283 7.0566 26.4283 8.90566C26.4283 10.7547 25.0667 11.7358 23.608 11.7358Z" fill="white"/>
<path d="M35.6843 11.6792C34.8285 11.6792 34.5368 11.1887 34.5368 10.6792V6.01887H36.6179V4H34.5368V1.49057H31.911V4H30.4716V6.01887H31.911V11.0943C31.911 13.1132 33.1558 13.9245 34.8674 13.9245C35.5093 13.9245 36.2484 13.8113 36.6374 13.4717V11.5283C36.2678 11.6415 35.9177 11.6792 35.6843 11.6792Z" fill="white"/>
<path d="M45.1381 4V9.35849C45.1381 10.7925 44.3017 11.7358 42.9791 11.7358C41.6176 11.7358 40.8201 10.7925 40.8201 9.35849V4H38.2138V9.77358C38.2138 12.7547 39.9643 14 42.026 14C43.5432 14 44.574 13.3396 45.1381 12.4717V13.8113H47.7444V4H45.1381Z" fill="white"/>
<path d="M55.5012 3.81132C53.6728 3.81132 52.6809 5.03774 52.3308 6.54717V4H49.7244V13.8113H52.3308V9.5283C52.3308 7.56604 53.5561 6.24528 55.5206 6.24528C55.754 6.24528 55.9485 6.26415 56.1819 6.30189V3.88679C55.9485 3.83019 55.7346 3.81132 55.5012 3.81132Z" fill="white"/>
<path d="M62.0084 3.81132C59.4215 3.81132 56.8929 5.60377 56.8929 8.90566C56.8929 12.1698 59.3826 14 62.164 14C63.9534 14 65.4121 13.283 66.2485 12.2642L65.062 11.0377C64.3229 11.6604 63.4477 11.9245 62.4557 11.9245C60.9386 11.9245 59.7327 11.2264 59.3631 9.88679H66.9293C67.4933 5.56604 64.5758 3.81132 62.0084 3.81132ZM62.0278 5.9434C63.2532 5.9434 64.4591 6.64151 64.6147 8.03774H59.3242C59.6549 6.62264 60.8219 5.9434 62.0278 5.9434Z" fill="white"/>
</svg>
